<mxfile host="app.diagrams.net" modified="2024-04-13T11:02:19.507Z" agent="Mozilla/5.0 (Windows NT 10.0; Win64; x64) AppleWebKit/537.36 (KHTML, like Gecko) Chrome/123.0.0.0 Safari/537.36" etag="moac-CEz6laH6K7U3IMT" version="24.1.0" type="github">
  <diagram id="prtHgNgQTEPvFCAcTncT" name="Page-1">
    <mxGraphModel dx="791" dy="426" grid="1" gridSize="10" guides="1" tooltips="1" connect="1" arrows="1" fold="1" page="1" pageScale="1" pageWidth="827" pageHeight="1169" math="0" shadow="0">
      <root>
        <mxCell id="0" />
        <mxCell id="1" parent="0" />
        <mxCell id="dNxyNK7c78bLwvsdeMH5-19" value="Cus-03-Cristal Taveras" style="swimlane;html=1;childLayout=stackLayout;resizeParent=1;resizeParentMax=0;horizontal=0;startSize=20;horizontalStack=0;labelBackgroundColor=none;fillColor=#09555B;strokeColor=#BAC8D3;fontColor=#EEEEEE;" parent="1" vertex="1">
          <mxGeometry x="100" y="90" width="660" height="570" as="geometry" />
        </mxCell>
        <mxCell id="dNxyNK7c78bLwvsdeMH5-20" value="" style="swimlane;html=1;startSize=20;horizontal=0;labelBackgroundColor=none;fillColor=#09555B;strokeColor=#BAC8D3;fontColor=#EEEEEE;" parent="dNxyNK7c78bLwvsdeMH5-19" vertex="1">
          <mxGeometry x="20" width="640" height="570" as="geometry" />
        </mxCell>
        <mxCell id="dNxyNK7c78bLwvsdeMH5-25" value="" style="edgeStyle=orthogonalEdgeStyle;rounded=0;orthogonalLoop=1;jettySize=auto;html=1;labelBackgroundColor=none;strokeColor=#0B4D6A;fontColor=default;" parent="dNxyNK7c78bLwvsdeMH5-20" source="dNxyNK7c78bLwvsdeMH5-23" target="dNxyNK7c78bLwvsdeMH5-24" edge="1">
          <mxGeometry relative="1" as="geometry" />
        </mxCell>
        <mxCell id="dNxyNK7c78bLwvsdeMH5-23" value="" style="ellipse;whiteSpace=wrap;html=1;labelBackgroundColor=none;fillColor=#09555B;strokeColor=#BAC8D3;fontColor=#EEEEEE;" parent="dNxyNK7c78bLwvsdeMH5-20" vertex="1">
          <mxGeometry x="40" y="40" width="40" height="40" as="geometry" />
        </mxCell>
        <mxCell id="LL9nh84sXyM6qO8u5H-V-2" style="edgeStyle=orthogonalEdgeStyle;rounded=0;orthogonalLoop=1;jettySize=auto;html=1;entryX=0;entryY=0.5;entryDx=0;entryDy=0;labelBackgroundColor=none;strokeColor=#0B4D6A;fontColor=default;" edge="1" parent="dNxyNK7c78bLwvsdeMH5-20" source="dNxyNK7c78bLwvsdeMH5-24">
          <mxGeometry relative="1" as="geometry">
            <mxPoint x="360" y="60" as="targetPoint" />
          </mxGeometry>
        </mxCell>
        <mxCell id="LL9nh84sXyM6qO8u5H-V-72" value="&lt;font style=&quot;font-size: 8px;&quot;&gt;Error de autentificación&lt;/font&gt;" style="edgeLabel;html=1;align=center;verticalAlign=middle;resizable=0;points=[];strokeColor=#BAC8D3;fontColor=#000000;fillColor=#09555B;" vertex="1" connectable="0" parent="LL9nh84sXyM6qO8u5H-V-2">
          <mxGeometry x="-0.3324" y="4" relative="1" as="geometry">
            <mxPoint x="26" y="-6" as="offset" />
          </mxGeometry>
        </mxCell>
        <mxCell id="dNxyNK7c78bLwvsdeMH5-24" value="Iniciar sesión&amp;nbsp;" style="rounded=0;whiteSpace=wrap;html=1;fontFamily=Helvetica;fontSize=12;fontColor=#EEEEEE;align=center;labelBackgroundColor=none;fillColor=#09555B;strokeColor=#BAC8D3;" parent="dNxyNK7c78bLwvsdeMH5-20" vertex="1">
          <mxGeometry x="120" y="30" width="80" height="60" as="geometry" />
        </mxCell>
        <mxCell id="dNxyNK7c78bLwvsdeMH5-35" style="edgeStyle=orthogonalEdgeStyle;rounded=0;orthogonalLoop=1;jettySize=auto;html=1;endArrow=classic;endFill=1;labelBackgroundColor=none;strokeColor=#0B4D6A;fontColor=default;" parent="dNxyNK7c78bLwvsdeMH5-20" edge="1">
          <mxGeometry relative="1" as="geometry">
            <mxPoint x="159.5" y="90" as="sourcePoint" />
            <mxPoint x="159.5" y="150" as="targetPoint" />
          </mxGeometry>
        </mxCell>
        <mxCell id="LL9nh84sXyM6qO8u5H-V-9" style="edgeStyle=orthogonalEdgeStyle;rounded=0;orthogonalLoop=1;jettySize=auto;html=1;entryX=0.5;entryY=0;entryDx=0;entryDy=0;labelBackgroundColor=none;strokeColor=#0B4D6A;fontColor=default;" edge="1" parent="dNxyNK7c78bLwvsdeMH5-20" source="LL9nh84sXyM6qO8u5H-V-3" target="LL9nh84sXyM6qO8u5H-V-4">
          <mxGeometry relative="1" as="geometry" />
        </mxCell>
        <mxCell id="LL9nh84sXyM6qO8u5H-V-3" value="Pantalla principal" style="rounded=0;whiteSpace=wrap;html=1;fontFamily=Helvetica;fontSize=12;fontColor=#EEEEEE;align=center;labelBackgroundColor=none;fillColor=#09555B;strokeColor=#BAC8D3;" vertex="1" parent="dNxyNK7c78bLwvsdeMH5-20">
          <mxGeometry x="120" y="150" width="80" height="60" as="geometry" />
        </mxCell>
        <mxCell id="LL9nh84sXyM6qO8u5H-V-7" value="" style="edgeStyle=orthogonalEdgeStyle;rounded=0;orthogonalLoop=1;jettySize=auto;html=1;labelBackgroundColor=none;strokeColor=#0B4D6A;fontColor=default;" edge="1" parent="dNxyNK7c78bLwvsdeMH5-20" source="LL9nh84sXyM6qO8u5H-V-4" target="LL9nh84sXyM6qO8u5H-V-6">
          <mxGeometry relative="1" as="geometry" />
        </mxCell>
        <mxCell id="LL9nh84sXyM6qO8u5H-V-12" value="" style="edgeStyle=orthogonalEdgeStyle;rounded=0;orthogonalLoop=1;jettySize=auto;html=1;labelBackgroundColor=none;strokeColor=#0B4D6A;fontColor=default;" edge="1" parent="dNxyNK7c78bLwvsdeMH5-20" source="LL9nh84sXyM6qO8u5H-V-4" target="LL9nh84sXyM6qO8u5H-V-11">
          <mxGeometry relative="1" as="geometry" />
        </mxCell>
        <mxCell id="LL9nh84sXyM6qO8u5H-V-4" value="&quot;Agregar producto&quot;" style="rounded=0;whiteSpace=wrap;html=1;fontFamily=Helvetica;fontSize=12;fontColor=#EEEEEE;align=center;labelBackgroundColor=none;fillColor=#09555B;strokeColor=#BAC8D3;" vertex="1" parent="dNxyNK7c78bLwvsdeMH5-20">
          <mxGeometry x="120" y="270" width="80" height="60" as="geometry" />
        </mxCell>
        <mxCell id="LL9nh84sXyM6qO8u5H-V-14" style="edgeStyle=orthogonalEdgeStyle;rounded=0;orthogonalLoop=1;jettySize=auto;html=1;exitX=1;exitY=0.5;exitDx=0;exitDy=0;labelBackgroundColor=none;strokeColor=#0B4D6A;fontColor=default;" edge="1" parent="dNxyNK7c78bLwvsdeMH5-20" source="LL9nh84sXyM6qO8u5H-V-6" target="LL9nh84sXyM6qO8u5H-V-13">
          <mxGeometry relative="1" as="geometry" />
        </mxCell>
        <mxCell id="LL9nh84sXyM6qO8u5H-V-6" value="Formulario actualizado" style="rounded=0;whiteSpace=wrap;html=1;fontFamily=Helvetica;fontSize=12;fontColor=#EEEEEE;align=center;labelBackgroundColor=none;fillColor=#09555B;strokeColor=#BAC8D3;" vertex="1" parent="dNxyNK7c78bLwvsdeMH5-20">
          <mxGeometry x="294" y="270" width="80" height="60" as="geometry" />
        </mxCell>
        <mxCell id="LL9nh84sXyM6qO8u5H-V-10" value="" style="ellipse;shape=doubleEllipse;whiteSpace=wrap;html=1;aspect=fixed;labelBackgroundColor=none;fillColor=#09555B;strokeColor=#BAC8D3;fontColor=#EEEEEE;" vertex="1" parent="dNxyNK7c78bLwvsdeMH5-20">
          <mxGeometry x="360" y="40" width="40" height="40" as="geometry" />
        </mxCell>
        <mxCell id="LL9nh84sXyM6qO8u5H-V-16" style="edgeStyle=orthogonalEdgeStyle;rounded=0;orthogonalLoop=1;jettySize=auto;html=1;entryX=0.5;entryY=0;entryDx=0;entryDy=0;labelBackgroundColor=none;strokeColor=#0B4D6A;fontColor=default;" edge="1" parent="dNxyNK7c78bLwvsdeMH5-20" source="LL9nh84sXyM6qO8u5H-V-11" target="LL9nh84sXyM6qO8u5H-V-15">
          <mxGeometry relative="1" as="geometry" />
        </mxCell>
        <mxCell id="LL9nh84sXyM6qO8u5H-V-11" value="Error al agregar producto" style="rounded=0;whiteSpace=wrap;html=1;fontFamily=Helvetica;fontSize=12;fontColor=#EEEEEE;align=center;labelBackgroundColor=none;fillColor=#09555B;strokeColor=#BAC8D3;" vertex="1" parent="dNxyNK7c78bLwvsdeMH5-20">
          <mxGeometry x="120" y="434" width="80" height="60" as="geometry" />
        </mxCell>
        <mxCell id="LL9nh84sXyM6qO8u5H-V-13" value="" style="ellipse;shape=doubleEllipse;whiteSpace=wrap;html=1;aspect=fixed;labelBackgroundColor=none;fillColor=#09555B;strokeColor=#BAC8D3;fontColor=#EEEEEE;" vertex="1" parent="dNxyNK7c78bLwvsdeMH5-20">
          <mxGeometry x="440" y="280" width="40" height="40" as="geometry" />
        </mxCell>
        <mxCell id="LL9nh84sXyM6qO8u5H-V-15" value="" style="ellipse;shape=doubleEllipse;whiteSpace=wrap;html=1;aspect=fixed;labelBackgroundColor=none;fillColor=#09555B;strokeColor=#BAC8D3;fontColor=#EEEEEE;" vertex="1" parent="dNxyNK7c78bLwvsdeMH5-20">
          <mxGeometry x="140" y="520" width="40" height="40" as="geometry" />
        </mxCell>
        <mxCell id="LL9nh84sXyM6qO8u5H-V-73" value="&lt;font style=&quot;font-size: 6px;&quot;&gt;Error: formulario incompleto&lt;/font&gt;" style="edgeLabel;html=1;align=center;verticalAlign=middle;resizable=0;points=[];strokeColor=#BAC8D3;fontColor=#000000;fillColor=#09555B;rotation=90;" vertex="1" connectable="0" parent="dNxyNK7c78bLwvsdeMH5-20">
          <mxGeometry x="210.00304347826102" y="400" as="geometry">
            <mxPoint x="-14.000000000000002" y="36" as="offset" />
          </mxGeometry>
        </mxCell>
        <mxCell id="LL9nh84sXyM6qO8u5H-V-74" value="&lt;font style=&quot;font-size: 6px;&quot;&gt;Formulario campos correctos&lt;/font&gt;" style="edgeLabel;html=1;align=center;verticalAlign=middle;resizable=0;points=[];strokeColor=#BAC8D3;fontColor=#000000;fillColor=#09555B;" vertex="1" connectable="0" parent="dNxyNK7c78bLwvsdeMH5-20">
          <mxGeometry x="260.00304347826096" y="240" as="geometry">
            <mxPoint x="-13" y="42" as="offset" />
          </mxGeometry>
        </mxCell>
      </root>
    </mxGraphModel>
  </diagram>
</mxfile>
